<svg width="41" height="41" viewBox="0 0 41 41" fill="none" xmlns="http://www.w3.org/2000/svg">
<path fill-rule="evenodd" clip-rule="evenodd" d="M9.08579 8.67661C9.86683 7.89556 11.1332 7.89556 11.9142 8.67661L20.5 17.2624L29.0858 8.67661C29.8668 7.89556 31.1332 7.89556 31.9142 8.67661C32.6953 9.45766 32.6953 10.724 31.9142 11.505L23.3284 20.0908L31.9142 28.6766C32.6953 29.4577 32.6953 30.724 31.9142 31.505C31.1332 32.2861 29.8668 32.2861 29.0858 31.505L20.5 22.9192L11.9142 31.505C11.1332 32.2861 9.86683 32.2861 9.08579 31.505C8.30474 30.724 8.30474 29.4577 9.08579 28.6766L17.6716 20.0908L9.08579 11.505C8.30474 10.724 8.30474 9.45766 9.08579 8.67661Z" fill="#272727"/>
</svg>
